HIERARCHY
ROOT Hips
{
 OFFSET 0.000000 0.000000 0.000000
 CHANNELS 6 Xposition Yposition Zposition Yrotation Xrotation Zrotation
 JOINT Chest
 {
  OFFSET 0.000000 9.585900 0.002600
  CHANNELS 3 Yrotation Xrotation Zrotation
  JOINT Chest2
  {
   OFFSET 0.000000 9.601200 -0.005300
   CHANNELS 3 Yrotation Xrotation Zrotation
   JOINT Chest3
   {
    OFFSET 0.000000 9.561800 0.000000
    CHANNELS 3 Yrotation Xrotation Zrotation
    JOINT Chest4
    {
     OFFSET 0.000000 9.552100 0.000000
     CHANNELS 3 Yrotation Xrotation Zrotation
     JOINT Neck
     {
      OFFSET 0.000000 14.453000 0.000000
      CHANNELS 3 Yrotation Xrotation Zrotation
      JOINT Head
      {
       OFFSET 0.000000 8.936500 -0.011300
       CHANNELS 3 Yrotation Xrotation Zrotation
       End Site
       {
        OFFSET 0.000000 17.073600 -0.006000
       }
      }
     }
     JOINT RightCollar
     {
      OFFSET -2.921100 9.558500 0.000000
      CHANNELS 3 Yrotation Xrotation Zrotation
      JOINT RightShoulder
      {
       OFFSET -13.519700 0.000000 0.000000
       CHANNELS 3 Yrotation Xrotation Zrotation
       JOINT RightElbow
       {
        OFFSET 0.000000 -29.696600 0.000000
        CHANNELS 3 Yrotation Xrotation Zrotation
        JOINT RightWrist
        {
         OFFSET 0.000000 -24.004700 0.000000
         CHANNELS 3 Yrotation Xrotation Zrotation
         End Site
         {
          OFFSET 0.000000 -17.728500 0.000000
         }
        }
       }
      }
     }
     JOINT LeftCollar
     {
      OFFSET 2.921100 9.558500 0.000000
      CHANNELS 3 Yrotation Xrotation Zrotation
      JOINT LeftShoulder
      {
       OFFSET 13.519700 0.000000 0.000000
       CHANNELS 3 Yrotation Xrotation Zrotation
       JOINT LeftElbow
       {
        OFFSET 0.000000 -29.696600 0.000000
        CHANNELS 3 Yrotation Xrotation Zrotation
        JOINT LeftWrist
        {
         OFFSET 0.000000 -24.004700 0.000000
         CHANNELS 3 Yrotation Xrotation Zrotation
         End Site
         {
          OFFSET 0.000000 -17.728500 0.000000
         }
        }
       }
      }
     }
    }
   }
  }
 }
 JOINT RightHip
 {
  OFFSET -7.771700 -0.012900 -0.001300
  CHANNELS 3 Yrotation Xrotation Zrotation
  JOINT RightKnee
  {
   OFFSET 0.000000 -40.869800 0.001200
   CHANNELS 3 Yrotation Xrotation Zrotation
   JOINT RightAnkle
   {
    OFFSET 0.000000 -39.717900 0.002100
    CHANNELS 3 Yrotation Xrotation Zrotation
    JOINT RightToe
    {
     OFFSET 0.000000 -4.965400 11.033500
     CHANNELS 3 Yrotation Xrotation Zrotation
     End Site
     {
      OFFSET 0.000000 -1.423100 5.872300
     }
    }
   }
  }
 }
 JOINT LeftHip
 {
  OFFSET 7.771700 -0.012900 -0.001300
  CHANNELS 3 Yrotation Xrotation Zrotation
  JOINT LeftKnee
  {
   OFFSET 0.000000 -40.869800 0.001200
   CHANNELS 3 Yrotation Xrotation Zrotation
   JOINT LeftAnkle
   {
    OFFSET 0.000000 -39.717900 0.002100
    CHANNELS 3 Yrotation Xrotation Zrotation
    JOINT LeftToe
    {
     OFFSET 0.000000 -4.965400 11.033500
     CHANNELS 3 Yrotation Xrotation Zrotation
     End Site
     {
      OFFSET 0.000000 -1.423100 5.872300
     }
    }
   }
  }
 }
}
MOTION
Frames: 8
Frame Time: 0.008333
0.000000 85.388000 0.000000 0.000000 -5.767877 0.000000 0.000000 11.653817 0.000000 0.000000 -5.885947 0.000000 0.000000 -0.000000 0.000000 0.000000 -0.000000 0.000000 0.000000 12.528835 0.000000 0.000000 0.711642 0.000000 0.000000 -0.000000 0.000000 0.000000 0.000000 -90.000000 0.000000 -2.309062 0.000000 0.000000 2.309062 0.000000 0.000000 -0.000000 0.000000 0.000000 -0.000000 90.000000 0.000000 -2.309062 0.000000 0.000000 2.309062 0.000000 0.000000 8.520406 0.000000 0.000000 1.905762 0.000000 -0.000000 -4.658285 0.000000 0.000000 -0.000000 0.000000 0.000000 8.520406 0.000000 0.000000 1.905762 0.000000 -0.000000 -4.658285 0.000000 0.000000 -0.000000 0.000000
-6.943789 58.198933 29.979036 173.575057 -28.249742 -2.346319 1.671158 21.193710 0.740501 0.217594 2.883869 0.004601 0.319766 4.600560 -0.001103 1.294819 18.134398 0.151301 0.355780 6.703742 -1.756187 1.630579 -23.310885 -3.697070 7.204340 -3.595927 -1.435102 35.359395 -42.641158 -15.897371 47.713118 -4.592471 -3.455336 12.689924 8.309737 -42.801073 -9.180159 -5.169735 -2.701481 -18.802627 -36.283099 1.785967 -53.722372 -11.856584 20.440369 -35.630582 2.945830 35.361701 12.392439 -43.243330 -2.656273 4.041486 72.400604 7.293607 8.057896 -4.055468 6.075576 -0.142126 0.157440 0.036340 -7.888958 -45.180956 -1.270856 24.678200 73.577844 27.372079 -24.282008 -4.420233 -4.238764 -0.159094 -0.538450 -0.052392
-6.944591 58.202890 29.983181 173.570903 -28.232111 -2.352449 1.699711 21.238685 0.765059 0.225676 2.897865 0.006373 0.326103 4.622959 0.003367 1.319038 18.170971 0.171968 0.324667 6.377846 -1.838294 1.626507 -23.914304 -3.859374 7.065524 -3.604149 -1.439598 35.188532 -42.633907 -15.777850 47.771676 -4.888269 -3.708107 12.759615 8.357757 -42.720441 -9.213017 -5.205453 -2.613242 -18.792006 -36.257446 1.728639 -53.719336 -12.072129 20.574019 -35.607490 2.956775 35.387791 12.368784 -43.258035 -2.634857 4.148580 72.376101 7.390431 8.039353 -4.001217 5.990257 -0.143076 0.141539 0.085005 -7.881547 -45.196023 -1.268077 24.557490 73.584810 27.259278 -24.240101 -4.382314 -4.234589 -0.162239 -0.529171 -0.058925
-6.946828 58.208054 29.986614 173.566034 -28.221949 -2.348914 1.746117 21.321692 0.789716 0.201908 2.842508 0.000205 0.352299 4.683503 0.011577 1.346717 18.208100 0.192522 0.292862 6.056978 -1.919816 1.621396 -24.508214 -4.020632 6.934764 -3.639842 -1.444173 34.959318 -42.608682 -15.612081 47.849480 -5.184463 -3.969005 12.832619 8.401144 -42.644453 -9.246855 -5.241135 -2.522979 -18.757746 -36.228713 1.669162 -53.739569 -12.307440 20.706232 -35.605006 2.981911 35.389073 12.352974 -43.255470 -2.625611 4.266570 72.343929 7.495159 8.013331 -3.969957 5.957566 -0.148446 0.147962 0.082188 -7.854123 -45.204660 -1.291737 24.469530 73.583108 27.189382 -24.214069 -4.333393 -4.235344 -0.189412 -0.541004 -0.065129
-6.948370 58.213788 29.990320 173.570806 -28.214380 -2.352162 1.758477 21.344709 0.799697 0.203994 2.849822 0.001418 0.383954 4.741569 0.021118 1.379350 18.244579 0.214412 0.259830 5.747571 -2.002224 1.614862 -25.080779 -4.183392 6.792659 -3.673153 -1.443829 34.708762 -42.589296 -15.429055 47.945539 -5.470733 -4.231685 12.906365 8.438374 -42.577498 -9.286109 -5.271102 -2.434223 -18.696222 -36.200944 1.606120 -53.795099 -12.555930 20.838335 -35.603673 3.009231 35.385250 12.249625 -43.240792 -2.549423 4.427713 72.297883 7.578673 7.966910 -3.964742 5.946878 -0.121531 0.182677 0.064829 -7.821741 -45.206019 -1.336962 24.408272 73.571584 27.163140 -24.158797 -4.293320 -4.234958 -0.225609 -0.548567 -0.078764
-6.950485 58.218036 29.997240 173.574552 -28.188851 -2.349840 1.789887 21.378853 0.814874 0.209434 2.864876 0.003924 0.396019 4.754301 0.029582 1.414861 18.278832 0.238786 0.227354 5.456975 -2.086810 1.610745 -25.618375 -4.350903 6.675062 -3.744240 -1.455599 34.377839 -42.547759 -15.186987 48.061385 -5.742454 -4.486698 12.979279 8.474107 -42.517915 -9.326081 -5.289356 -2.353325 -18.611051 -36.177615 1.536722 -53.885305 -12.806943 20.968914 -35.600534 3.037148 35.381394 12.227942 -43.252227 -2.542794 4.593595 72.259197 7.728022 7.911275 -3.924440 5.910087 -0.117299 0.186876 0.065417 -7.814815 -45.228706 -1.346439 24.296619 73.565340 27.049870 -24.115187 -4.239674 -4.229258 -0.246150 -0.569679 -0.082975
-6.947924 58.224369 30.000942 173.567840 -28.193409 -2.363080 1.845631 21.435873 0.858790 0.215103 2.878937 0.007229 0.400076 4.760604 0.037153 1.405423 18.262010 0.241500 0.241563 5.239984 -2.164578 1.615643 -26.107662 -4.524331 6.599915 -3.750937 -1.454404 34.039248 -42.524215 -14.946787 48.200241 -5.996644 -4.723252 13.050677 8.505846 -42.463952 -9.317123 -5.243926 -2.283769 -18.514709 -36.161824 1.469074 -53.993090 -13.057417 21.090450 -35.596734 3.059356 35.378251 12.191023 -43.240552 -2.500100 4.777141 72.220249 7.894315 7.887923 -3.865097 5.838238 -0.111817 0.195685 0.065795 -7.813187 -45.219529 -1.334917 24.277160 73.560481 27.037708 -24.100822 -4.206439 -4.229539 -0.253229 -0.587300 -0.086195
-6.947595 58.229717 30.005280 173.574994 -28.194671 -2.364389 1.874807 21.478319 0.881555 0.258250 2.931148 0.031163 0.368264 4.726225 0.027738 1.396066 18.255438 0.240762 0.259132 5.039007 -2.241198 1.630825 -26.539413 -4.703899 6.438235 -3.654011 -1.397937 33.875906 -42.579115 -14.843924 48.360264 -6.227488 -4.939545 13.118685 8.531214 -42.405003 -9.305013 -5.197215 -2.222467 -18.416432 -36.155762 1.414370 -54.103578 -13.306721 21.196565 -35.593243 3.074559 35.366380 12.136120 -43.229364 -2.456154 4.857291 72.194007 7.936649 7.857782 -3.824970 5.789171 -0.107838 0.194835 0.080322 -7.794567 -45.216412 -1.357933 24.201470 73.557620 26.974570 -24.068826 -4.166185 -4.221871 -0.269861 -0.594202 -0.097963
